<svg width="38" height="38" viewBox="0 0 38 38" fill="none" xmlns="http://www.w3.org/2000/svg">
<path fill-rule="evenodd" clip-rule="evenodd" d="M1 0C0.447716 0 0 0.447715 0 1V37C0 37.5523 0.447715 38 1 38H37C37.5523 38 38 37.5523 38 37V1C38 0.447716 37.5523 0 37 0H1Z" fill="white"/>
<path fill-rule="evenodd" clip-rule="evenodd" d="M27.64 19.2046C27.64 18.5664 27.5827 17.9527 27.4764 17.3636H19V20.845H23.8436C23.635 21.97 23.0009 22.9232 22.0477 23.5614V25.8196H24.9564C26.6582 24.2527 27.64 21.9455 27.64 19.2046Z" fill="#4285F4"/>
<path fill-rule="evenodd" clip-rule="evenodd" d="M19 28C21.43 28 23.4673 27.1941 24.9564 25.8195L22.0477 23.5614C21.2418 24.1014 20.2109 24.4204 19 24.4204C16.6559 24.4204 14.6718 22.8373 13.9641 20.71H10.9573V23.0418C12.4382 25.9832 15.4818 28 19 28Z" fill="#34A853"/>
<path fill-rule="evenodd" clip-rule="evenodd" d="M13.9641 20.71C13.7841 20.17 13.6818 19.5932 13.6818 19C13.6818 18.4068 13.7841 17.83 13.9641 17.29V14.9582H10.9573C10.3477 16.1732 10 17.5477 10 19C10 20.4523 10.3477 21.8268 10.9573 23.0418L13.9641 20.71Z" fill="#FBBC05"/>
<path fill-rule="evenodd" clip-rule="evenodd" d="M19 13.5795C20.3214 13.5795 21.5077 14.0336 22.4405 14.9255L25.0218 12.3441C23.4632 10.8918 21.4259 10 19 10C15.4818 10 12.4382 12.0168 10.9573 14.9582L13.9641 17.29C14.6718 15.1627 16.6559 13.5795 19 13.5795Z" fill="#EA4335"/>
</svg>
