<svg width="12" height="27" viewBox="0 0 12 27" fill="none" xmlns="http://www.w3.org/2000/svg">
<path fill-rule="evenodd" clip-rule="evenodd" d="M3.5 8C4.32843 8 5 7.32843 5 6.5C5 5.67157 4.32843 5 3.5 5C2.67157 5 2 5.67157 2 6.5C2 7.32843 2.67157 8 3.5 8ZM8.5 8C9.32843 8 10 7.32843 10 6.5C10 5.67157 9.32843 5 8.5 5C7.67157 5 7 5.67157 7 6.5C7 7.32843 7.67157 8 8.5 8ZM5 11.5C5 12.3284 4.32843 13 3.5 13C2.67157 13 2 12.3284 2 11.5C2 10.6716 2.67157 10 3.5 10C4.32843 10 5 10.6716 5 11.5ZM8.5 13C9.32843 13 10 12.3284 10 11.5C10 10.6716 9.32843 10 8.5 10C7.67157 10 7 10.6716 7 11.5C7 12.3284 7.67157 13 8.5 13ZM5 16.5C5 17.3284 4.32843 18 3.5 18C2.67157 18 2 17.3284 2 16.5C2 15.6716 2.67157 15 3.5 15C4.32843 15 5 15.6716 5 16.5ZM8.5 18C9.32843 18 10 17.3284 10 16.5C10 15.6716 9.32843 15 8.5 15C7.67157 15 7 15.6716 7 16.5C7 17.3284 7.67157 18 8.5 18ZM5 21.5C5 22.3284 4.32843 23 3.5 23C2.67157 23 2 22.3284 2 21.5C2 20.6716 2.67157 20 3.5 20C4.32843 20 5 20.6716 5 21.5ZM8.5 23C9.32843 23 10 22.3284 10 21.5C10 20.6716 9.32843 20 8.5 20C7.67157 20 7 20.6716 7 21.5C7 22.3284 7.67157 23 8.5 23Z" fill="#E0E0E0"/>
</svg>
